<svg xmlns="http://www.w3.org/2000/svg" viewBox="0 0 1100 860">
  <defs>
    <style>
      svg { font-family: 'IBM Plex Sans', Arial, sans-serif; }
      .mono { font-family: 'IBM Plex Mono', 'IBM Plex Sans', Arial, sans-serif; }
      .title { fill: #0f62fe; font-size: 11px; font-weight: 700; letter-spacing: 1.4px; }
      .subtitle { fill: #697789; font-size: 11px; letter-spacing: 0.4px; }
      .section { fill: #526277; font-size: 9px; font-weight: 700; letter-spacing: 1.1px; }
      .label { fill: #161616; font-size: 11px; font-weight: 600; text-anchor: middle; dominant-baseline: middle; }
      .sub { fill: #5f6b7a; font-size: 8px; text-anchor: middle; dominant-baseline: middle; }
      .note { fill: #445163; font-size: 8px; }
      .small { fill: #6c7988; font-size: 7px; }
      .frame { fill: none; stroke: #c5cfdb; stroke-width: 1.1; }
      .host { fill: #ffffff; stroke: #c5cfdb; stroke-width: 1; }
      .workflowWrap { fill: #eef6ff; stroke: #0f62fe; stroke-width: 1.2; }
      .policyWrap { fill: #f6f8fb; stroke: #c5cfdb; stroke-width: 1; }
      .kernelWrap { fill: #f8f4ff; stroke: #8a3ffc; stroke-width: 1.2; }
      .opsWrap { fill: #f6f8fb; stroke: #c5cfdb; stroke-width: 1; }
      .box { fill: #ffffff; stroke: #c5cfdb; stroke-width: 0.9; }
      .boxBlue { fill: #ffffff; stroke: #0f62fe; stroke-width: 1; }
      .boxPurple { fill: #ffffff; stroke: #8a3ffc; stroke-width: 1; }
      .boxGreen { fill: #defbe6; stroke: #42be65; stroke-width: 1; }
      .boxGray { fill: #ffffff; stroke: #c5cfdb; stroke-width: 0.9; }
      .conn { fill: none; stroke: #0f62fe; stroke-width: 1.2; }
      .connDim { fill: none; stroke: #a8b4c4; stroke-width: 1; stroke-dasharray: 4 3; }
      .watermark { fill: #93a0b1; font-size: 10px; letter-spacing: 0.5px; }
    </style>
    <marker id="arrow" viewBox="0 0 10 7" refX="10" refY="3.5" markerWidth="8" markerHeight="6" orient="auto">
      <path d="M0 0 L10 3.5 L0 7 z" fill="#0f62fe"/>
    </marker>
    <marker id="arrowDim" viewBox="0 0 10 7" refX="10" refY="3.5" markerWidth="8" markerHeight="6" orient="auto">
      <path d="M0 0 L10 3.5 L0 7 z" fill="#a8b4c4"/>
    </marker>
  </defs>

  <rect width="1100" height="860" fill="#ffffff" rx="8"/>

  <text class="title mono" x="52" y="38">AIGC v0.9.0 BETA</text>
  <text class="subtitle mono" x="52" y="56">Component View for the local develop workflow-governance line</text>

  <rect class="frame" x="52" y="84" width="996" height="98" rx="8"/>
  <rect class="frame" x="52" y="204" width="996" height="496" rx="8"/>
  <rect class="frame" x="52" y="722" width="996" height="92" rx="8"/>

  <text class="section mono" x="72" y="104">HOST APPLICATION</text>
  <text class="section mono" x="72" y="224">AIGC SDK v0.9.0 BETA SURFACE</text>
  <text class="section mono" x="72" y="742">BETA ADOPTION + OPERATOR SURFACES</text>

  <rect class="host" x="84" y="118" width="232" height="42" rx="8"/>
  <rect class="host" x="352" y="118" width="242" height="42" rx="8"/>
  <rect class="host" x="632" y="118" width="372" height="42" rx="8"/>
  <text class="label" x="200" y="138">App / Agent / Orchestrator</text>
  <text class="label" x="473" y="138">Provider / Tool / Transport Runtime</text>
  <text class="label" x="818" y="138">Host owns execution, retries, credentials, business state</text>
  <path class="conn" d="M316 139 L352 139" marker-end="url(#arrow)"/>
  <path class="connDim" d="M594 139 L632 139" marker-end="url(#arrowDim)"/>

  <rect class="policyWrap" x="82" y="258" width="248" height="178" rx="10"/>
  <text class="section mono" x="102" y="280">POLICY + LOADING</text>
  <rect class="boxGray" x="98" y="300" width="104" height="42" rx="8"/>
  <rect class="boxGray" x="214" y="300" width="100" height="42" rx="8"/>
  <rect class="boxGray" x="98" y="356" width="104" height="42" rx="8"/>
  <rect class="boxGray" x="214" y="356" width="100" height="42" rx="8"/>
  <text class="label" x="150" y="320">Policy YAML</text>
  <text class="label" x="264" y="320">PolicyCache</text>
  <text class="label" x="150" y="376">FilePolicyLoader</text>
  <text class="sub" x="150" y="388">or PolicyLoaderBase</text>
  <text class="label" x="264" y="376">JSON Schemas</text>
  <path class="conn" d="M202 321 L214 321" marker-end="url(#arrow)"/>
  <path class="conn" d="M150 342 L150 356" marker-end="url(#arrow)"/>
  <path class="connDim" d="M214 377 L202 377" marker-end="url(#arrowDim)"/>

  <rect class="workflowWrap" x="356" y="258" width="662" height="188" rx="10"/>
  <text class="section mono" x="376" y="280">WORKFLOW GOVERNANCE LAYER</text>
  <rect class="boxBlue" x="378" y="304" width="134" height="48" rx="8"/>
  <rect class="boxBlue" x="540" y="304" width="150" height="48" rx="8"/>
  <rect class="boxBlue" x="718" y="304" width="152" height="48" rx="8"/>
  <rect class="boxBlue" x="888" y="304" width="112" height="48" rx="8"/>
  <text class="label" x="445" y="324">AIGC.open_session()</text>
  <text class="label" x="615" y="324">GovernanceSession</text>
  <text class="label" x="794" y="320">SessionPreCallResult</text>
  <text class="sub" x="794" y="334">workflow-bound split token</text>
  <text class="label" x="944" y="324">Workflow DSL</text>
  <text class="sub" x="944" y="338">sequence · budgets · approvals</text>
  <path class="conn" d="M512 328 L540 328" marker-end="url(#arrow)"/>
  <path class="conn" d="M690 328 L718 328" marker-end="url(#arrow)"/>
  <path class="connDim" d="M944 352 L944 390 L698 390" marker-end="url(#arrowDim)"/>

  <rect class="boxBlue" x="392" y="380" width="300" height="44" rx="8"/>
  <rect class="boxGreen" x="726" y="380" width="274" height="44" rx="8"/>
  <text class="label" x="542" y="400">Tracks steps, checkpoints, participants, budgets</text>
  <text class="label" x="863" y="396">Workflow artifact</text>
  <text class="sub" x="863" y="410">COMPLETED · FAILED · CANCELED · INCOMPLETE</text>

  <rect class="kernelWrap" x="356" y="470" width="662" height="164" rx="10"/>
  <text class="section mono" x="376" y="492">INVOCATION ENTRYPOINTS + DETERMINISTIC KERNEL</text>
  <rect class="boxPurple" x="378" y="516" width="132" height="44" rx="8"/>
  <rect class="boxPurple" x="528" y="516" width="126" height="44" rx="8"/>
  <rect class="boxPurple" x="672" y="516" width="166" height="44" rx="8"/>
  <rect class="boxPurple" x="856" y="516" width="144" height="44" rx="8"/>
  <text class="label" x="444" y="536">enforce_invocation()</text>
  <text class="label" x="591" y="536">AIGC.enforce()</text>
  <text class="label" x="755" y="532">split APIs</text>
  <text class="sub" x="755" y="546">pre_call / post_call</text>
  <text class="label" x="928" y="532">ordered gates</text>
  <text class="sub" x="928" y="546">auth -> output -> risk</text>
  <path class="conn" d="M510 538 L528 538" marker-end="url(#arrow)"/>
  <path class="conn" d="M654 538 L672 538" marker-end="url(#arrow)"/>
  <path class="conn" d="M838 538 L856 538" marker-end="url(#arrow)"/>

  <rect class="boxPurple" x="392" y="580" width="608" height="34" rx="8"/>
  <text class="label" x="696" y="597">pre_authorization -> guards -> role -> preconditions -> tools -> post_authorization -> pre_output -> schema -> postconditions -> post_output -> risk</text>

  <rect class="boxGreen" x="82" y="476" width="248" height="56" rx="8"/>
  <rect class="boxGreen" x="82" y="548" width="248" height="56" rx="8"/>
  <rect class="boxGray" x="82" y="620" width="248" height="56" rx="8"/>
  <text class="label" x="206" y="495">Invocation artifact</text>
  <text class="sub" x="206" y="509">PASS or FAIL per invocation attempt</text>
  <text class="label" x="206" y="567">AuditSink + signing</text>
  <text class="sub" x="206" y="581">JSONL · callback · custom · optional signer</text>
  <text class="label" x="206" y="639">Stored-trail analysis</text>
  <text class="sub" x="206" y="653">AuditLineage / compliance export --lineage</text>

  <path class="conn" d="M200 160 L200 476" marker-end="url(#arrow)"/>
  <path class="conn" d="M316 139 L444 516" marker-end="url(#arrow)"/>
  <path class="conn" d="M594 139 L755 516" marker-end="url(#arrow)"/>
  <path class="conn" d="M690 328 L672 538" marker-end="url(#arrow)"/>
  <path class="conn" d="M1000 538 L1000 507 L330 507" marker-end="url(#arrow)"/>
  <path class="conn" d="M330 507 L330 566" marker-end="url(#arrow)"/>
  <path class="conn" d="M726 402 L330 402 L330 638" marker-end="url(#arrow)"/>
  <path class="connDim" d="M330 566 L330 638" marker-end="url(#arrowDim)"/>

  <rect class="opsWrap" x="82" y="754" width="936" height="42" rx="10"/>
  <rect class="box" x="98" y="764" width="176" height="24" rx="6"/>
  <rect class="box" x="292" y="764" width="176" height="24" rx="6"/>
  <rect class="box" x="486" y="764" width="176" height="24" rx="6"/>
  <rect class="box" x="680" y="764" width="322" height="24" rx="6"/>
  <text class="label" x="186" y="776">aigc workflow init</text>
  <text class="label" x="380" y="776">aigc workflow lint</text>
  <text class="label" x="574" y="776">aigc workflow doctor</text>
  <text class="label" x="841" y="776">beta adopter flow + diagnosis around starter/workflow state</text>
  <path class="connDim" d="M186 764 L186 604" marker-end="url(#arrowDim)"/>
  <path class="connDim" d="M380 764 L944 352" marker-end="url(#arrowDim)"/>
  <path class="connDim" d="M574 764 L863 424" marker-end="url(#arrowDim)"/>

  <text class="note mono" x="84" y="414">The host still performs provider and tool calls after AIGC authorizes a step or invocation.</text>
  <text class="note mono" x="84" y="456">The beta adds workflow evidence; it does not collapse AIGC into a hosted orchestrator.</text>
  <text class="small mono" x="84" y="832">Planned-only public items intentionally omitted: AgentIdentity, AgentCapabilityManifest, public ValidatorHook, BedrockTraceAdapter, A2AAdapter, workflow trace/export.</text>
  <text class="watermark mono" x="52" y="848">AIGC v0.9.0 Beta · local develop only · github.com/nealsolves/aigc</text>
</svg>
