<svg xmlns="http://www.w3.org/2000/svg" viewBox="0 0 1100 310" font-family="'IBM Plex Sans', Arial, sans-serif">
  <defs>
    <marker id="arr" viewBox="0 0 10 7" refX="10" refY="3.5" markerWidth="8" markerHeight="6" orient="auto-start-reverse">
      <path d="M 0 0 L 10 3.5 L 0 7 z" fill="#5a6a9a"/>
    </marker>
  </defs>

  <!-- Background -->
  <rect width="1100" height="310" fill="#08080e" rx="8"/>

  <!-- Title -->
  <text x="40" y="34" fill="#6b8afd" font-size="11" font-weight="700" letter-spacing="1.5">AIGC v0.3.3</text>
  <text x="40" y="50" fill="#4a4a5e" font-size="11" letter-spacing="0.5">Split view shows the default v0.3.3 decorator path; unified mode runs the same ordered gates in one call</text>

  <!-- ════ ROW 1: Authorization Phase ════ -->
  <text x="56" y="80" fill="#4a5a7a" font-size="9" font-weight="600" letter-spacing="1">PHASE A / PRE-CALL</text>

  <!-- Start -->
  <rect x="56" y="92" width="90" height="40" rx="20" fill="#1a2818" stroke="#3a6a3a" stroke-width="1"/>
  <text x="101" y="111" fill="#b8e8b8" font-size="9" text-anchor="middle" font-weight="500">Invocation</text>
  <text x="101" y="123" fill="#6a9a6a" font-size="8" text-anchor="middle">or Phase A</text>

  <!-- Connectors -->
  <line x1="146" y1="112" x2="162" y2="112" stroke="#5a6a9a" stroke-width="1" marker-end="url(#arr)"/>

  <rect x="168" y="92" width="110" height="40" rx="4" fill="#161828" stroke="#2a3a5a" stroke-width="0.8"/>
  <text x="223" y="111" fill="#a8b8d8" font-size="9" text-anchor="middle" font-weight="500">Validation +</text>
  <text x="223" y="123" fill="#6a7a9a" font-size="8" text-anchor="middle">policy load</text>

  <line x1="278" y1="112" x2="294" y2="112" stroke="#5a6a9a" stroke-width="1" marker-end="url(#arr)"/>

  <rect x="300" y="92" width="120" height="40" rx="4" fill="#1a1430" stroke="#4a3a6a" stroke-width="0.8"/>
  <text x="360" y="111" fill="#b8a8e8" font-size="9" text-anchor="middle" font-weight="500">pre_authorization</text>
  <text x="360" y="123" fill="#6a5a8a" font-size="8" text-anchor="middle">custom gates</text>

  <line x1="420" y1="112" x2="436" y2="112" stroke="#5a6a9a" stroke-width="1" marker-end="url(#arr)"/>

  <rect x="442" y="92" width="100" height="40" rx="4" fill="#161828" stroke="#2a3a5a" stroke-width="0.8"/>
  <text x="492" y="111" fill="#a8b8d8" font-size="9" text-anchor="middle" font-weight="500">Guard</text>
  <text x="492" y="123" fill="#6a7a9a" font-size="8" text-anchor="middle">evaluation</text>

  <line x1="542" y1="112" x2="558" y2="112" stroke="#5a6a9a" stroke-width="1" marker-end="url(#arr)"/>

  <rect x="564" y="92" width="90" height="40" rx="4" fill="#161828" stroke="#2a3a5a" stroke-width="0.8"/>
  <text x="609" y="111" fill="#a8b8d8" font-size="9" text-anchor="middle" font-weight="500">Role</text>
  <text x="609" y="123" fill="#6a7a9a" font-size="8" text-anchor="middle">validation</text>

  <line x1="654" y1="112" x2="670" y2="112" stroke="#5a6a9a" stroke-width="1" marker-end="url(#arr)"/>

  <rect x="676" y="92" width="110" height="40" rx="4" fill="#161828" stroke="#2a3a5a" stroke-width="0.8"/>
  <text x="731" y="111" fill="#a8b8d8" font-size="9" text-anchor="middle" font-weight="500">Precondition</text>
  <text x="731" y="123" fill="#6a7a9a" font-size="8" text-anchor="middle">validation</text>

  <line x1="786" y1="112" x2="802" y2="112" stroke="#5a6a9a" stroke-width="1" marker-end="url(#arr)"/>

  <rect x="808" y="92" width="120" height="40" rx="4" fill="#161828" stroke="#2a3a5a" stroke-width="0.8"/>
  <text x="868" y="111" fill="#a8b8d8" font-size="9" text-anchor="middle" font-weight="500">Tool Constraint</text>
  <text x="868" y="123" fill="#6a7a9a" font-size="8" text-anchor="middle">validation</text>

  <line x1="928" y1="112" x2="944" y2="112" stroke="#5a6a9a" stroke-width="1" marker-end="url(#arr)"/>

  <rect x="950" y="92" width="106" height="40" rx="4" fill="#1a1430" stroke="#4a3a6a" stroke-width="0.8"/>
  <text x="1003" y="111" fill="#b8a8e8" font-size="9" text-anchor="middle" font-weight="500">post_authorization</text>
  <text x="1003" y="123" fill="#6a5a8a" font-size="8" text-anchor="middle">custom gates</text>

  <!-- Wrap arrow: down and left -->
  <path d="M 1003 132 L 1003 168 Q 1003 178 993 178 L 172 178 L 172 198"
        fill="none" stroke="#5a6a9a" stroke-width="1" marker-end="url(#arr)"/>

  <!-- ════ ROW 2: Output Phase ════ -->
  <text x="56" y="190" fill="#4a5a7a" font-size="9" font-weight="600" letter-spacing="1">PHASE B / POST-CALL</text>
  <text x="988" y="147" fill="#4a5a7a" font-size="8" text-anchor="end">model call boundary</text>
  <text x="988" y="157" fill="#4a4a5e" font-size="7" text-anchor="end">split mode only</text>

  <rect x="118" y="198" width="108" height="40" rx="4" fill="#1a1430" stroke="#4a3a6a" stroke-width="0.8"/>
  <text x="172" y="217" fill="#b8a8e8" font-size="9" text-anchor="middle" font-weight="500">pre_output</text>
  <text x="172" y="229" fill="#6a5a8a" font-size="8" text-anchor="middle">custom gates</text>

  <line x1="226" y1="218" x2="242" y2="218" stroke="#5a6a9a" stroke-width="1" marker-end="url(#arr)"/>

  <rect x="248" y="198" width="120" height="40" rx="4" fill="#161828" stroke="#2a3a5a" stroke-width="0.8"/>
  <text x="308" y="217" fill="#a8b8d8" font-size="9" text-anchor="middle" font-weight="500">Output Schema</text>
  <text x="308" y="229" fill="#6a7a9a" font-size="8" text-anchor="middle">validation</text>

  <line x1="368" y1="218" x2="384" y2="218" stroke="#5a6a9a" stroke-width="1" marker-end="url(#arr)"/>

  <rect x="390" y="198" width="120" height="40" rx="4" fill="#161828" stroke="#2a3a5a" stroke-width="0.8"/>
  <text x="450" y="217" fill="#a8b8d8" font-size="9" text-anchor="middle" font-weight="500">Postcondition</text>
  <text x="450" y="229" fill="#6a7a9a" font-size="8" text-anchor="middle">validation</text>

  <line x1="510" y1="218" x2="526" y2="218" stroke="#5a6a9a" stroke-width="1" marker-end="url(#arr)"/>

  <rect x="532" y="198" width="108" height="40" rx="4" fill="#1a1430" stroke="#4a3a6a" stroke-width="0.8"/>
  <text x="586" y="217" fill="#b8a8e8" font-size="9" text-anchor="middle" font-weight="500">post_output</text>
  <text x="586" y="229" fill="#6a5a8a" font-size="8" text-anchor="middle">custom gates</text>

  <line x1="640" y1="218" x2="656" y2="218" stroke="#5a6a9a" stroke-width="1" marker-end="url(#arr)"/>

  <rect x="662" y="198" width="140" height="40" rx="4" fill="#161828" stroke="#3a5a4a" stroke-width="0.8"/>
  <text x="732" y="217" fill="#a8d8b8" font-size="9" text-anchor="middle" font-weight="500">Risk Scoring</text>
  <text x="732" y="229" fill="#6a9a7a" font-size="8" text-anchor="middle">if configured</text>

  <line x1="802" y1="218" x2="818" y2="218" stroke="#5a6a9a" stroke-width="1" marker-end="url(#arr)"/>

  <!-- End -->
  <rect x="824" y="198" width="116" height="40" rx="20" fill="#1a2818" stroke="#3a6a3a" stroke-width="1.2"/>
  <text x="882" y="217" fill="#b8e8b8" font-size="9" text-anchor="middle" font-weight="600">PASS / FAIL</text>
  <text x="882" y="229" fill="#6a9a6a" font-size="8" text-anchor="middle">audit artifact</text>

  <!-- Legend -->
  <rect x="56" y="258" width="460" height="28" rx="4" fill="#0c0e16" stroke="#1a1a2a" stroke-width="0.5"/>
  <rect x="72" y="270" width="14" height="3" rx="1" fill="#4a3a6a"/>
  <text x="94" y="274" fill="#5a5a6e" font-size="8">custom gate insertion point (immutable views, GateResult return)</text>
  <rect x="390" y="270" width="14" height="3" rx="1" fill="#3a6a3a"/>
  <text x="412" y="274" fill="#5a5a6e" font-size="8">Phase A / Phase B boundary</text>

  <!-- Watermark -->
  <text x="550" y="302" fill="#2a2a3a" font-size="10" text-anchor="middle" letter-spacing="0.5">github.com/nealsolves/aigc · MIT License</text>
</svg>
