<svg xmlns="http://www.w3.org/2000/svg" viewBox="0 0 1100 390" font-family="'IBM Plex Sans', Arial, sans-serif">
  <defs>
    <marker id="arr" viewBox="0 0 10 7" refX="10" refY="3.5" markerWidth="8" markerHeight="6" orient="auto-start-reverse">
      <path d="M 0 0 L 10 3.5 L 0 7 z" fill="#0f62fe"/>
    </marker>
  </defs>

  <!-- Background -->
  <rect width="1100" height="390" fill="#ffffff" rx="8"/>

  <!-- Title -->
  <text x="40" y="34" fill="#0f62fe" font-size="11" font-weight="600" letter-spacing="1.5" font-family="'IBM Plex Mono', monospace">AIGC v0.3.3</text>
  <text x="40" y="50" fill="#878d96" font-size="11" letter-spacing="0.5" font-family="'IBM Plex Mono', monospace">Split view shows the default v0.3.3 decorator path plus the workflow-aware provenance and downstream analysis surfaces added in 0.3.3</text>

  <!-- ════ ROW 1: Authorization Phase ════ -->
  <text x="56" y="80" fill="#878d96" font-size="9" font-weight="600" letter-spacing="1" font-family="'IBM Plex Mono', monospace">PHASE A / PRE-CALL</text>

  <!-- Start -->
  <rect x="56" y="92" width="90" height="40" rx="20" fill="#defbe6" stroke="#42be65" stroke-width="1"/>
  <text x="101" y="111" fill="#0e6027" font-size="9" text-anchor="middle" font-weight="500">Invocation</text>
  <text x="101" y="123" fill="#198038" font-size="8" text-anchor="middle">or Phase A</text>

  <!-- Connectors -->
  <line x1="146" y1="112" x2="162" y2="112" stroke="#0f62fe" stroke-width="1" marker-end="url(#arr)"/>

  <rect x="168" y="92" width="110" height="40" rx="4" fill="#ffffff" stroke="#c1c7cd" stroke-width="0.8"/>
  <text x="223" y="111" fill="#161616" font-size="9" text-anchor="middle" font-weight="500">Validation +</text>
  <text x="223" y="123" fill="#878d96" font-size="8" text-anchor="middle">policy load</text>

  <line x1="278" y1="112" x2="294" y2="112" stroke="#0f62fe" stroke-width="1" marker-end="url(#arr)"/>

  <rect x="300" y="92" width="120" height="40" rx="4" fill="#f6f2ff" stroke="#be95ff" stroke-width="0.8"/>
  <text x="360" y="111" fill="#6929c4" font-size="9" text-anchor="middle" font-weight="500" font-family="'IBM Plex Mono', monospace">pre_authorization</text>
  <text x="360" y="123" fill="#8a3ffc" font-size="8" text-anchor="middle">custom gates</text>

  <line x1="420" y1="112" x2="436" y2="112" stroke="#0f62fe" stroke-width="1" marker-end="url(#arr)"/>

  <rect x="442" y="92" width="100" height="40" rx="4" fill="#ffffff" stroke="#c1c7cd" stroke-width="0.8"/>
  <text x="492" y="111" fill="#161616" font-size="9" text-anchor="middle" font-weight="500">Guard</text>
  <text x="492" y="123" fill="#878d96" font-size="8" text-anchor="middle">evaluation</text>

  <line x1="542" y1="112" x2="558" y2="112" stroke="#0f62fe" stroke-width="1" marker-end="url(#arr)"/>

  <rect x="564" y="92" width="90" height="40" rx="4" fill="#ffffff" stroke="#c1c7cd" stroke-width="0.8"/>
  <text x="609" y="111" fill="#161616" font-size="9" text-anchor="middle" font-weight="500">Role</text>
  <text x="609" y="123" fill="#878d96" font-size="8" text-anchor="middle">validation</text>

  <line x1="654" y1="112" x2="670" y2="112" stroke="#0f62fe" stroke-width="1" marker-end="url(#arr)"/>

  <rect x="676" y="92" width="110" height="40" rx="4" fill="#ffffff" stroke="#c1c7cd" stroke-width="0.8"/>
  <text x="731" y="111" fill="#161616" font-size="9" text-anchor="middle" font-weight="500">Precondition</text>
  <text x="731" y="123" fill="#878d96" font-size="8" text-anchor="middle">validation</text>

  <line x1="786" y1="112" x2="802" y2="112" stroke="#0f62fe" stroke-width="1" marker-end="url(#arr)"/>

  <rect x="808" y="92" width="120" height="40" rx="4" fill="#ffffff" stroke="#c1c7cd" stroke-width="0.8"/>
  <text x="868" y="111" fill="#161616" font-size="9" text-anchor="middle" font-weight="500">Tool Constraint</text>
  <text x="868" y="123" fill="#878d96" font-size="8" text-anchor="middle">validation</text>

  <line x1="928" y1="112" x2="944" y2="112" stroke="#0f62fe" stroke-width="1" marker-end="url(#arr)"/>

  <rect x="950" y="92" width="106" height="40" rx="4" fill="#f6f2ff" stroke="#be95ff" stroke-width="0.8"/>
  <text x="1003" y="111" fill="#6929c4" font-size="9" text-anchor="middle" font-weight="500" font-family="'IBM Plex Mono', monospace">post_authorization</text>
  <text x="1003" y="123" fill="#8a3ffc" font-size="8" text-anchor="middle">custom gates</text>

  <!-- Wrap arrow -->
  <path d="M 1003 132 L 1003 168 Q 1003 178 993 178 L 208 178 L 208 198"
        fill="none" stroke="#0f62fe" stroke-width="1" marker-end="url(#arr)"/>

  <!-- ════ ROW 2: Output Phase ════ -->
  <text x="56" y="190" fill="#878d96" font-size="9" font-weight="600" letter-spacing="1" font-family="'IBM Plex Mono', monospace">PHASE B / POST-CALL</text>
  <text x="988" y="147" fill="#878d96" font-size="8" text-anchor="end">model call boundary</text>
  <text x="988" y="157" fill="#878d96" font-size="7" text-anchor="end">split mode only</text>

  <rect x="118" y="198" width="108" height="40" rx="4" fill="#f6f2ff" stroke="#be95ff" stroke-width="0.8"/>
  <text x="172" y="217" fill="#6929c4" font-size="9" text-anchor="middle" font-weight="500" font-family="'IBM Plex Mono', monospace">pre_output</text>
  <text x="172" y="229" fill="#8a3ffc" font-size="8" text-anchor="middle">custom gates</text>

  <line x1="226" y1="218" x2="242" y2="218" stroke="#0f62fe" stroke-width="1" marker-end="url(#arr)"/>

  <rect x="248" y="198" width="120" height="40" rx="4" fill="#ffffff" stroke="#c1c7cd" stroke-width="0.8"/>
  <text x="308" y="217" fill="#161616" font-size="9" text-anchor="middle" font-weight="500">Output Schema</text>
  <text x="308" y="229" fill="#878d96" font-size="8" text-anchor="middle">validation</text>

  <line x1="368" y1="218" x2="384" y2="218" stroke="#0f62fe" stroke-width="1" marker-end="url(#arr)"/>

  <rect x="390" y="198" width="120" height="40" rx="4" fill="#ffffff" stroke="#c1c7cd" stroke-width="0.8"/>
  <text x="450" y="217" fill="#161616" font-size="9" text-anchor="middle" font-weight="500">Postcondition</text>
  <text x="450" y="229" fill="#878d96" font-size="8" text-anchor="middle">validation</text>

  <line x1="510" y1="218" x2="526" y2="218" stroke="#0f62fe" stroke-width="1" marker-end="url(#arr)"/>

  <rect x="532" y="198" width="108" height="40" rx="4" fill="#f6f2ff" stroke="#be95ff" stroke-width="0.8"/>
  <text x="586" y="217" fill="#6929c4" font-size="9" text-anchor="middle" font-weight="500" font-family="'IBM Plex Mono', monospace">post_output</text>
  <text x="586" y="229" fill="#8a3ffc" font-size="8" text-anchor="middle">custom gates</text>

  <line x1="640" y1="218" x2="656" y2="218" stroke="#0f62fe" stroke-width="1" marker-end="url(#arr)"/>

  <rect x="662" y="198" width="140" height="40" rx="4" fill="#defbe6" stroke="#42be65" stroke-width="0.8"/>
  <text x="732" y="217" fill="#0e6027" font-size="9" text-anchor="middle" font-weight="500">Risk Scoring</text>
  <text x="732" y="229" fill="#198038" font-size="8" text-anchor="middle">if configured</text>

  <line x1="802" y1="218" x2="818" y2="218" stroke="#0f62fe" stroke-width="1" marker-end="url(#arr)"/>

  <!-- End -->
  <rect x="824" y="198" width="116" height="40" rx="20" fill="#defbe6" stroke="#42be65" stroke-width="1.2"/>
  <text x="882" y="217" fill="#0e6027" font-size="9" text-anchor="middle" font-weight="600">PASS / FAIL</text>
  <text x="882" y="229" fill="#198038" font-size="8" text-anchor="middle">audit artifact</text>

  <!-- Workflow-aware callouts -->
  <rect x="56" y="258" width="300" height="64" rx="6" fill="#ffffff" stroke="#be95ff" stroke-width="0.9"/>
  <text x="74" y="278" fill="#6929c4" font-size="9" font-weight="600" font-family="'IBM Plex Mono', monospace">Built-in Pre-Output Gate</text>
  <text x="74" y="294" fill="#161616" font-size="9"><tspan font-weight="600">ProvenanceGate</tspan> runs at <tspan font-family="'IBM Plex Mono', monospace">pre_output</tspan>.</text>
  <text x="74" y="308" fill="#525252" font-size="8">It blocks when context.provenance.source_ids is missing or empty.</text>
  <line x1="172" y1="238" x2="172" y2="258" stroke="#be95ff" stroke-width="1" stroke-dasharray="4 3" marker-end="url(#arr)"/>

  <rect x="388" y="258" width="316" height="64" rx="6" fill="#ffffff" stroke="#42be65" stroke-width="0.9"/>
  <text x="406" y="278" fill="#198038" font-size="9" font-weight="600" font-family="'IBM Plex Mono', monospace">Emitted Artifact Provenance</text>
  <text x="406" y="294" fill="#161616" font-size="9">PASS and FAIL artifacts can carry v1.4 provenance fields:</text>
  <text x="406" y="308" fill="#525252" font-size="8">source_ids, derived_from_audit_checksums, compilation_source_hash.</text>
  <polyline points="882,238 882,248 546,248 546,258" fill="none" stroke="#42be65" stroke-width="1" stroke-dasharray="4 3" marker-end="url(#arr)"/>

  <rect x="724" y="258" width="364" height="72" rx="6" fill="#ffffff" stroke="#0f62fe" stroke-width="0.9"/>
  <text x="742" y="278" fill="#0f62fe" font-size="9" font-weight="600" font-family="'IBM Plex Mono', monospace">Downstream Analysis, Not Runtime Gates</text>
  <text x="742" y="294" fill="#161616" font-size="9">AuditLineage and compliance export <tspan font-family="'IBM Plex Mono', monospace">--lineage</tspan> read stored trails.</text>
  <text x="742" y="310" fill="#525252" font-size="8">RiskHistory classifies emitted risk-score trends without changing enforcement order.</text>
  <polyline points="882,238 882,248 890,248 890,258" fill="none" stroke="#0f62fe" stroke-width="1" stroke-dasharray="4 3" marker-end="url(#arr)"/>
  <polyline points="732,238 732,248 936,248 936,258" fill="none" stroke="#0f62fe" stroke-width="1" stroke-dasharray="4 3" marker-end="url(#arr)"/>

  <!-- Legend -->
  <rect x="56" y="338" width="600" height="24" rx="4" fill="#f2f4f8" stroke="#c1c7cd" stroke-width="0.5"/>
  <rect x="72" y="348" width="16" height="3" rx="1" fill="#be95ff"/>
  <text x="96" y="352" fill="#878d96" font-size="8">built-in or custom gate insertion point</text>
  <rect x="292" y="348" width="16" height="3" rx="1" fill="#42be65"/>
  <text x="316" y="352" fill="#878d96" font-size="8">artifact provenance / downstream analysis boundary</text>

  <!-- Watermark -->
  <text x="550" y="382" fill="#c1c7cd" font-size="10" text-anchor="middle" letter-spacing="0.5" font-family="'IBM Plex Mono', monospace">github.com/nealsolves/aigc · MIT License</text>
</svg>
