<svg xmlns="http://www.w3.org/2000/svg" viewBox="0 0 1100 310" font-family="'IBM Plex Sans', Arial, sans-serif">
  <defs>
    <marker id="arr" viewBox="0 0 10 7" refX="10" refY="3.5" markerWidth="8" markerHeight="6" orient="auto-start-reverse">
      <path d="M 0 0 L 10 3.5 L 0 7 z" fill="#0f62fe"/>
    </marker>
  </defs>

  <!-- Background -->
  <rect width="1100" height="310" fill="#ffffff" rx="8"/>

  <!-- Title -->
  <text x="40" y="34" fill="#0f62fe" font-size="11" font-weight="600" letter-spacing="1.5" font-family="'IBM Plex Mono', monospace">AIGC v0.3.2</text>
  <text x="40" y="50" fill="#878d96" font-size="11" letter-spacing="0.5" font-family="'IBM Plex Mono', monospace">Split view shows the Phase A / Phase B boundary; unified mode runs the same ordered gates in one call</text>

  <!-- ════ ROW 1: Authorization Phase ════ -->
  <text x="56" y="80" fill="#878d96" font-size="9" font-weight="600" letter-spacing="1" font-family="'IBM Plex Mono', monospace">PHASE A / PRE-CALL</text>

  <!-- Start -->
  <rect x="56" y="92" width="90" height="40" rx="20" fill="#defbe6" stroke="#42be65" stroke-width="1"/>
  <text x="101" y="111" fill="#0e6027" font-size="9" text-anchor="middle" font-weight="500">Invocation</text>
  <text x="101" y="123" fill="#198038" font-size="8" text-anchor="middle">or Phase A</text>

  <line x1="146" y1="112" x2="162" y2="112" stroke="#0f62fe" stroke-width="1" marker-end="url(#arr)"/>

  <rect x="168" y="92" width="110" height="40" rx="4" fill="#ffffff" stroke="#c1c7cd" stroke-width="0.8"/>
  <text x="223" y="111" fill="#161616" font-size="9" text-anchor="middle" font-weight="500">Validation +</text>
  <text x="223" y="123" fill="#878d96" font-size="8" text-anchor="middle">policy load</text>

  <line x1="278" y1="112" x2="294" y2="112" stroke="#0f62fe" stroke-width="1" marker-end="url(#arr)"/>

  <rect x="300" y="92" width="120" height="40" rx="4" fill="#f6f2ff" stroke="#be95ff" stroke-width="0.8"/>
  <text x="360" y="111" fill="#6929c4" font-size="9" text-anchor="middle" font-weight="500" font-family="'IBM Plex Mono', monospace">pre_authorization</text>
  <text x="360" y="123" fill="#8a3ffc" font-size="8" text-anchor="middle">custom gates</text>

  <line x1="420" y1="112" x2="436" y2="112" stroke="#0f62fe" stroke-width="1" marker-end="url(#arr)"/>

  <rect x="442" y="92" width="100" height="40" rx="4" fill="#ffffff" stroke="#c1c7cd" stroke-width="0.8"/>
  <text x="492" y="111" fill="#161616" font-size="9" text-anchor="middle" font-weight="500">Guard</text>
  <text x="492" y="123" fill="#878d96" font-size="8" text-anchor="middle">evaluation</text>

  <line x1="542" y1="112" x2="558" y2="112" stroke="#0f62fe" stroke-width="1" marker-end="url(#arr)"/>

  <rect x="564" y="92" width="90" height="40" rx="4" fill="#ffffff" stroke="#c1c7cd" stroke-width="0.8"/>
  <text x="609" y="111" fill="#161616" font-size="9" text-anchor="middle" font-weight="500">Role</text>
  <text x="609" y="123" fill="#878d96" font-size="8" text-anchor="middle">validation</text>

  <line x1="654" y1="112" x2="670" y2="112" stroke="#0f62fe" stroke-width="1" marker-end="url(#arr)"/>

  <rect x="676" y="92" width="110" height="40" rx="4" fill="#ffffff" stroke="#c1c7cd" stroke-width="0.8"/>
  <text x="731" y="111" fill="#161616" font-size="9" text-anchor="middle" font-weight="500">Precondition</text>
  <text x="731" y="123" fill="#878d96" font-size="8" text-anchor="middle">validation</text>

  <line x1="786" y1="112" x2="802" y2="112" stroke="#0f62fe" stroke-width="1" marker-end="url(#arr)"/>

  <rect x="808" y="92" width="120" height="40" rx="4" fill="#ffffff" stroke="#c1c7cd" stroke-width="0.8"/>
  <text x="868" y="111" fill="#161616" font-size="9" text-anchor="middle" font-weight="500">Tool Constraint</text>
  <text x="868" y="123" fill="#878d96" font-size="8" text-anchor="middle">validation</text>

  <line x1="928" y1="112" x2="944" y2="112" stroke="#0f62fe" stroke-width="1" marker-end="url(#arr)"/>

  <rect x="950" y="92" width="106" height="40" rx="4" fill="#f6f2ff" stroke="#be95ff" stroke-width="0.8"/>
  <text x="1003" y="111" fill="#6929c4" font-size="9" text-anchor="middle" font-weight="500" font-family="'IBM Plex Mono', monospace">post_authorization</text>
  <text x="1003" y="123" fill="#8a3ffc" font-size="8" text-anchor="middle">custom gates</text>

  <!-- Wrap arrow -->
  <path d="M 1003 132 L 1003 155 Q 1003 165 993 165 L 146 165 Q 136 165 136 175 L 136 192"
        fill="none" stroke="#0f62fe" stroke-width="1" marker-end="url(#arr)"/>

  <!-- ════ ROW 2: Output Phase ════ -->
  <text x="56" y="190" fill="#878d96" font-size="9" font-weight="600" letter-spacing="1" font-family="'IBM Plex Mono', monospace">PHASE B / POST-CALL</text>
  <text x="1003" y="154" fill="#878d96" font-size="8" text-anchor="end">model call boundary</text>
  <text x="1003" y="164" fill="#878d96" font-size="7" text-anchor="end">split mode only</text>

  <rect x="118" y="198" width="108" height="40" rx="4" fill="#f6f2ff" stroke="#be95ff" stroke-width="0.8"/>
  <text x="172" y="217" fill="#6929c4" font-size="9" text-anchor="middle" font-weight="500" font-family="'IBM Plex Mono', monospace">pre_output</text>
  <text x="172" y="229" fill="#8a3ffc" font-size="8" text-anchor="middle">custom gates</text>

  <line x1="226" y1="218" x2="242" y2="218" stroke="#0f62fe" stroke-width="1" marker-end="url(#arr)"/>

  <rect x="248" y="198" width="120" height="40" rx="4" fill="#ffffff" stroke="#c1c7cd" stroke-width="0.8"/>
  <text x="308" y="217" fill="#161616" font-size="9" text-anchor="middle" font-weight="500">Output Schema</text>
  <text x="308" y="229" fill="#878d96" font-size="8" text-anchor="middle">validation</text>

  <line x1="368" y1="218" x2="384" y2="218" stroke="#0f62fe" stroke-width="1" marker-end="url(#arr)"/>

  <rect x="390" y="198" width="120" height="40" rx="4" fill="#ffffff" stroke="#c1c7cd" stroke-width="0.8"/>
  <text x="450" y="217" fill="#161616" font-size="9" text-anchor="middle" font-weight="500">Postcondition</text>
  <text x="450" y="229" fill="#878d96" font-size="8" text-anchor="middle">validation</text>

  <line x1="510" y1="218" x2="526" y2="218" stroke="#0f62fe" stroke-width="1" marker-end="url(#arr)"/>

  <rect x="532" y="198" width="108" height="40" rx="4" fill="#f6f2ff" stroke="#be95ff" stroke-width="0.8"/>
  <text x="586" y="217" fill="#6929c4" font-size="9" text-anchor="middle" font-weight="500" font-family="'IBM Plex Mono', monospace">post_output</text>
  <text x="586" y="229" fill="#8a3ffc" font-size="8" text-anchor="middle">custom gates</text>

  <line x1="640" y1="218" x2="656" y2="218" stroke="#0f62fe" stroke-width="1" marker-end="url(#arr)"/>

  <rect x="662" y="198" width="140" height="40" rx="4" fill="#defbe6" stroke="#42be65" stroke-width="0.8"/>
  <text x="732" y="217" fill="#0e6027" font-size="9" text-anchor="middle" font-weight="500">Risk Scoring</text>
  <text x="732" y="229" fill="#198038" font-size="8" text-anchor="middle">if configured</text>

  <line x1="802" y1="218" x2="818" y2="218" stroke="#0f62fe" stroke-width="1" marker-end="url(#arr)"/>

  <!-- End -->
  <rect x="824" y="198" width="116" height="40" rx="20" fill="#defbe6" stroke="#42be65" stroke-width="1.2"/>
  <text x="882" y="217" fill="#0e6027" font-size="9" text-anchor="middle" font-weight="600">PASS / FAIL</text>
  <text x="882" y="229" fill="#198038" font-size="8" text-anchor="middle">audit artifact</text>

  <!-- Legend -->
  <rect x="56" y="258" width="460" height="28" rx="4" fill="#f2f4f8" stroke="#c1c7cd" stroke-width="0.5"/>
  <rect x="72" y="270" width="14" height="3" rx="1" fill="#be95ff"/>
  <text x="94" y="274" fill="#878d96" font-size="8">custom gate insertion point (immutable views, GateResult return)</text>
  <rect x="390" y="270" width="14" height="3" rx="1" fill="#42be65"/>
  <text x="412" y="274" fill="#878d96" font-size="8">Phase A / Phase B boundary</text>

  <!-- Watermark -->
  <text x="550" y="302" fill="#c1c7cd" font-size="10" text-anchor="middle" letter-spacing="0.5" font-family="'IBM Plex Mono', monospace">github.com/nealsolves/aigc · MIT License</text>
</svg>
